<svg width="12" height="11" viewBox="0 0 12 11" fill="none" xmlns="http://www.w3.org/2000/svg">
<path d="M11.1498 6.53178V10.6546H8.75949V6.80809C8.75949 5.84228 8.41438 5.18272 7.54893 5.18272C6.88848 5.18272 6.49613 5.62676 6.32286 6.05672C6.25994 6.21038 6.24372 6.42376 6.24372 6.63927V10.6544H3.85326C3.85326 10.6544 3.88534 4.13972 3.85326 3.46536H6.24389V4.48412C6.23908 4.49214 6.23231 4.49998 6.22803 4.50765H6.24389V4.48412C6.56155 3.99533 7.12806 3.29655 8.39816 3.29655C9.97077 3.29655 11.1498 4.32404 11.1498 6.53178ZM1.35263 0C0.534956 0 0 0.536739 0 1.24193C0 1.93215 0.519448 2.4844 1.32126 2.4844H1.33677C2.17049 2.4844 2.68887 1.93215 2.68887 1.24193C2.673 0.536739 2.17049 0 1.35263 0ZM0.142073 10.6546H2.53164V3.46536H0.142073V10.6546Z" fill="black"/>
</svg>
