<svg width="20" height="20" viewBox="0 0 20 20" fill="none" xmlns="http://www.w3.org/2000/svg">
<g clip-path="url(#clip0_7_132)">
<path d="M10 0C4.47734 0 0 4.47734 0 10C0 15.5227 4.47734 20 10 20C15.5227 20 20 15.5227 20 10C20 4.47734 15.5227 0 10 0Z" fill="white"/>
<path d="M11.0941 9.09531L15.375 4.11914H14.3606L10.6435 8.43989L7.67468 4.11914H4.25049L8.73993 10.6529L4.25049 15.8712H5.26498L9.19033 11.3083L12.3256 15.8712H15.7498L11.0939 9.09531H11.0941ZM5.6305 4.88284H7.1887L14.361 15.1422H12.8029L5.6305 4.88284Z" fill="black"/>
</g>
<defs>
<clipPath id="clip0_7_132">
<rect width="20" height="20" fill="white"/>
</clipPath>
</defs>
</svg>
